<svg xmlns="http://www.w3.org/2000/svg" version="1.0" width="800.646" height="390.402"><g fill="#0079c1"><path d="M215.293 73.913c-8.08-35.25-28.277-63.913-31-68.594-4.39 6.578-20.46 31.886-28.715 59.97-8.87 31.298-10.187 59.074-7.114 86.43 3.074 27.354 14.578 55.438 14.578 55.438 6.147 14.762 15.368 30.56 21.34 38.323 8.781-11.416 28.979-45.489 35.302-89.96 3.512-24.71 3.6-46.358-4.391-81.607zm-31 162.786c-3.951-7.456-10.098-21.656-10.713-43.593-.176-21.199 8.343-39.342 10.801-43.144 2.196 3.802 9.573 19.6 10.45 41.248.528 21.207-6.498 37.884-10.537 45.489zm28.629-102.966c-.264 13.445-1.844 27.636-3.952 36.12.79-14.622-.966-35.241-4.39-51.338-3.338-16.088-12.822-42.995-20.462-55.43-7.025 11.846-15.631 35.109-20.198 55.28-4.478 20.198-4.654 44.611-4.654 51.935-1.23-6.173-4.215-28.18-3.337-50.319.702-18.257 4.918-37.006 7.289-45.63 8.957-28.812 19.056-47.236 20.9-50.16 1.932 2.924 14.665 25.59 21.252 49.432 6.586 23.833 7.903 46.648 7.552 60.11"/><path d="M197.905 253.691h-61.208v41.072c.088-.053.176-.114.176-.167 14.402-14.42 37.849-14.42 52.25 0 14.403 14.428 14.403 37.814 0 52.233-.087.062-.087.115-.175.167v.018c-.088.07-.176.123-.263.193-14.315 14.28-33.195 21.427-51.988 21.427-18.88 0-37.761-7.2-52.163-21.602-25.38-25.388-28.365-64.66-9.045-93.34 2.634-3.874 5.62-7.562 9.045-10.987 14.402-14.41 33.282-21.611 52.163-21.611v-98.777c-72.537 0-131.374 58.82-131.374 131.374 0 72.546 58.837 131.365 131.374 131.365 37.849 0 71.922-16 95.896-41.581v-89.784h-34.688m112.318 107.936c0 9.194-1.142 23.455-19.583 23.455h-21.78c-18.354 0-19.495-14.261-19.495-23.455v-84.445c0-9.203 1.141-23.465 19.495-23.465h21.779c18.441 0 19.583 14.262 19.583 23.465v18.573h-26.345v-21.418c0-2.248-1.669-4.312-4.128-4.312-1.492 0-4.127.93-4.127 4.312v89.582c0 3.372 2.635 4.311 4.127 4.311 2.46 0 4.128-2.063 4.128-4.311v-28.752h-3.952v-14.454h30.297v40.914m39.518-25.897l4.48-65.652h1.492l4.566 65.651H349.74zm-29.067 49.352h25.73l2.371-34.898h12.383l2.458 34.898h25.73l-13.699-131.365h-41.274l-13.699 131.365m78.42-16.509l25.204-98.495h-22.57v-16.36h49.53v16.325l-25.116 98.196h26.696v16.843h-53.744v-16.509m92.384-44.549v-54.017h3.337c2.898 0 4.917 2.433 4.917 6.57v40.878c0 4.127-2.02 6.569-4.917 6.569h-3.337zm-26.345 61.058h26.345V340.42h15.016c18.354 0 19.496-14.262 19.496-23.456v-39.781c0-9.203-1.142-23.465-19.496-23.465h-41.361v131.365m100.638-64.985v-50.082h3.424c2.81 0 4.83 2.433 4.83 6.56v36.953c0 4.128-2.02 6.57-4.83 6.57h-3.425zm37.936 64.984l-12.909-51.232c9.309-3.75 9.484-12.39 9.484-15.947v-40.721c0-9.203-1.053-23.465-19.495-23.465h-41.274v131.365h26.257v-48.606h1.932l8.958 48.606h27.047m48.651-21.163c0 2.257-1.669 4.32-4.128 4.32-1.492 0-4.127-.94-4.127-4.32v-89.582c0-3.381 2.635-4.312 4.127-4.312 2.46 0 4.128 2.064 4.128 4.312v89.582zm-34.512-2.292c0 9.194 1.141 23.455 19.583 23.455h21.69c18.442 0 19.584-14.261 19.584-23.455v-84.445c0-9.203-1.142-23.465-19.583-23.465h-21.691c-18.442 0-19.583 14.262-19.583 23.465v84.445m143.317-107.91h34.16v131.365h-26.257v-82.39h-.966l-13.524 82.39h-20.988l-13.524-82.39h-.965v82.39H692.84V253.717h34.161l17.037 92.331 17.124-92.33"/></g></svg>