<svg xmlns="http://www.w3.org/2000/svg" viewBox="0 0 512.257 512.257"><path d="M425.674 155.243C369.204 42.177 298.228.022 266.804.022a70.169 70.169 0 0 0-33.963 7.808 18.432 18.432 0 0 1-20.011-.576A74.098 74.098 0 0 0 181.47.022c-28.821 0-107.605 91.733-117.099 136.533a10.667 10.667 0 0 0 1.899 8.533l62.805 83.755c2.411 8.832 6.208 27.115 10.197 46.379 6.955 33.579 14.933 71.637 21.333 90.923a10.667 10.667 0 0 0 7.189 6.805c.979.274 1.991.41 3.008.405a10.665 10.665 0 0 0 6.784-2.453l245.333-202.667a10.664 10.664 0 0 0 2.755-12.992z" fill="#f44336"/><path d="M485.578 175.915c-35.278-35.258-92.406-35.41-127.872-.341-6.016 5.483-16.597 14.549-29.867 25.877-50.773 43.477-135.787 116.245-162.496 155.733-35.558 35.273-35.79 92.693-.517 128.251 35.273 35.558 92.693 35.79 128.251.517a90.695 90.695 0 0 0 18.527-26.496 515.199 515.199 0 0 1 110.4-101.205 380.614 380.614 0 0 0 63.659-54.123c35.308-35.459 35.27-92.801-.085-128.213z" fill="#cfd8dc"/><path d="M133.578 188.033c-5.891-.013-10.656-4.799-10.643-10.69a10.67 10.67 0 0 1 1.491-5.417c2.667-4.501 26.965-43.904 57.045-43.904 5.891 0 10.667 4.776 10.667 10.667s-4.776 10.667-10.667 10.667c-14.229 0-32.235 22.549-38.72 33.472a10.668 10.668 0 0 1-9.173 5.205z" fill="#d32f2f"/><circle cx="74.804" cy="202.689" r="74.667" fill="#ffc107"/></svg>